<?xml version="1.0" standalone="no"?>
<!DOCTYPE svg PUBLIC "-//W3C//DTD SVG 20010904//EN"
 "http://www.w3.org/TR/2001/REC-SVG-20010904/DTD/svg10.dtd">
<svg version="1.0" xmlns="http://www.w3.org/2000/svg"
 width="500.000000pt" height="500.000000pt" viewBox="0 0 500.000000 500.000000"
 preserveAspectRatio="xMidYMid meet">

<g transform="translate(0.000000,500.000000) scale(0.100000,-0.100000)"
fill="#000000" stroke="none">
<path d="M1078 4490 c-274 -47 -493 -244 -580 -520 l-23 -75 0 -1395 0 -1395
23 -75 c80 -252 251 -423 502 -502 l75 -23 1425 0 1425 0 75 23 c251 79 422
250 502 502 l23 75 0 1395 0 1395 -23 75 c-79 249 -245 417 -497 502 l-70 23
-1405 1 c-773 1 -1426 -2 -1452 -6z m2775 -545 c126 -47 236 -89 243 -93 9 -5
-350 -408 -1193 -1337 -663 -732 -1225 -1352 -1249 -1379 l-44 -48 -250 92
-249 93 42 48 c161 185 2454 2708 2461 2708 5 1 113 -37 239 -84z"/>
</g>
</svg>
